<svg width="2145" height="1034" viewBox="0 0 2145 1034" fill="none" xmlns="http://www.w3.org/2000/svg">
<rect width="2145" height="1034" fill="white"/>
<g clip-path="url(#clip0_2001_11046)">
<mask id="mask0_2001_11046" style="mask-type:luminance" maskUnits="userSpaceOnUse" x="30" y="30" width="391" height="429">
<path d="M421 30H30V459H421V30Z" fill="white"/>
</mask>
<g mask="url(#mask0_2001_11046)">
<path d="M403.145 170.615C396.492 162.973 307.32 59.8083 306.417 58.7592C304.747 56.8317 303.103 54.9468 301.459 53.0705C288.852 38.6823 269.66 30.0768 250.127 30.0512C224.92 30.0171 197.704 30 164.49 30C143.654 30 123.329 30.0085 104.102 30.0085H97.0064C72.192 30.0171 56.5946 40.951 47.8716 50.1195C36.0223 62.5801 30.0168 78.4437 30.0168 97.2669C30.0168 100.022 30.0082 102.776 30.0082 105.591C29.9912 114.316 29.9742 123.339 30.1105 132.482C30.3234 147.101 35.0171 161.677 43.3227 173.532C47.5309 179.536 51.8838 185.651 56.7223 192.355C56.9353 192.653 57.0546 193.011 57.0546 193.37C57.0375 206.197 57.0375 219.024 57.029 231.852V232.534C57.0205 247.69 57.0205 262.828 56.9949 277.976C56.9609 299.519 66.5442 319.46 83.3001 332.688C85.6342 334.53 88.1812 336.671 90.8816 338.931L114.478 358.641L114.912 359.008C147.777 386.454 181.757 414.838 215.243 442.701C227.476 452.876 242.997 458.659 258.96 458.991C262.572 459.068 266.09 459.077 268.416 459.077C269.796 459.077 271.133 459.077 272.42 459.068C273.689 459.068 274.967 459.06 276.245 459.06C279.379 459.06 281.713 459.085 283.809 459.136C284.465 459.154 285.078 459.162 285.692 459.162C303.615 459.162 320.285 452.484 332.637 440.373C345.457 427.793 352.46 410.531 352.366 391.767C352.34 385.993 352.315 380.142 352.306 374.3H354.044C373.245 374.292 389.336 367.98 401.884 355.562C414.619 342.948 421.085 326.675 421.093 307.195V284.756C421.093 263.187 421.093 240.875 421.153 218.948C421.204 200.926 414.977 184.21 403.145 170.615Z" fill="white"/>
<path d="M294.994 68.6612C293.358 66.7763 291.731 64.9085 290.104 63.0492C280.317 51.8764 265.367 45.1984 250.11 45.1813C224.921 45.1472 197.721 45.1301 164.524 45.1301C143.68 45.1301 123.354 45.1387 104.12 45.1387H97.0237C81.4007 45.1472 68.5463 50.3327 58.8266 60.5588C45.1374 74.964 45.1288 91.7658 45.1288 97.2839C45.1288 100.047 45.1203 102.802 45.1203 105.634C45.1033 114.299 45.0863 123.254 45.214 132.278C45.3844 143.894 49.107 155.468 55.6918 164.866C60.6326 171.92 65.7863 179.135 71.6896 187.289C71.9963 187.707 72.1666 188.227 72.1666 188.739C72.1496 203.118 72.1411 217.498 72.1326 231.877V232.568C72.124 247.724 72.124 262.88 72.0985 278.027C72.0729 295.144 79.3733 310.351 92.6537 320.833C95.1581 322.812 97.7903 325.021 100.584 327.358L124.164 347.051L124.794 347.571C157.59 374.957 191.503 403.281 224.912 431.085C234.385 438.966 246.907 443.631 259.276 443.878C262.751 443.947 266.159 443.955 268.425 443.955C269.754 443.955 271.04 443.955 272.284 443.947H272.394C273.698 443.947 274.976 443.938 276.253 443.938C279.524 443.938 281.969 443.964 284.201 444.023C284.721 444.032 285.206 444.04 285.7 444.04C299.85 444.04 312.423 439.034 322.074 429.567C332.092 419.733 337.348 406.684 337.271 391.836C337.22 381.029 337.203 370.002 337.195 359.179H341.003L354.036 359.162C359.658 359.162 376.772 359.145 391.27 344.79C405.99 330.215 405.99 312.867 405.999 307.17V284.73C405.999 263.153 405.999 240.833 406.059 218.888C406.101 204.577 401.152 191.314 391.764 180.525C385.086 172.883 295.897 69.7017 294.994 68.6612ZM399.695 284.756V307.187C399.695 312.236 399.687 327.605 386.841 340.33C374.182 352.859 359.011 352.876 354.027 352.876L340.994 352.893H330.9C330.908 365.72 330.908 378.957 330.976 391.887C331.044 404.995 326.444 416.475 317.67 425.089C309.22 433.379 298.171 437.755 285.7 437.755C285.257 437.755 284.814 437.746 284.363 437.738C282.08 437.678 279.584 437.652 276.253 437.652C274.958 437.652 273.672 437.652 272.377 437.661C271.108 437.661 269.788 437.669 268.425 437.669C266.193 437.669 262.828 437.661 259.404 437.593C248.432 437.371 237.324 433.234 228.933 426.249C195.498 398.42 161.551 370.07 128.721 342.65L128.201 342.215L104.639 322.53C101.811 320.159 99.1363 317.916 96.5637 315.886C84.8251 306.624 78.3766 293.183 78.4022 278.035C78.4277 262.88 78.4363 247.724 78.4363 232.568V231.877C78.4448 216.73 78.4448 201.591 78.4703 186.444C78.4703 186.086 78.3511 185.728 78.1466 185.438C71.6811 176.534 66.1526 168.79 60.854 161.242C54.9848 152.866 51.6711 142.546 51.5177 132.184C51.39 123.203 51.407 114.273 51.424 105.642C51.4326 102.811 51.4326 100.047 51.4326 97.2839C51.4326 92.3884 51.4411 77.48 63.3926 64.8999C71.877 55.9703 83.1981 51.4415 97.0322 51.4415H104.128C123.371 51.4329 143.697 51.4329 164.55 51.4329C197.73 51.4329 224.921 51.45 250.118 51.4841C263.595 51.5012 276.781 57.3775 285.394 67.2113C287.021 69.062 288.639 70.9213 290.258 72.7891C291.161 73.8296 380.35 177.02 387.028 184.696C395.402 194.316 399.806 206.146 399.772 218.905C399.695 240.858 399.695 263.178 399.695 284.756Z" fill="#003870"/>
<path d="M281.194 80.6186C279.601 78.7764 277.991 76.9341 276.381 75.1004C270.001 67.8168 260.17 63.4671 250.076 63.4501C224.972 63.416 197.849 63.3989 164.72 63.3989C144.889 63.3989 125.569 63.4074 107.203 63.4074H97.0152C93.1222 63.4074 81.29 63.416 72.0389 73.1473C63.3756 82.2561 63.3756 93.173 63.3756 97.2754C63.3756 100.047 63.367 102.819 63.367 105.659C63.35 114.265 63.333 123.152 63.4607 132.005C63.58 139.988 66.1185 147.928 70.6248 154.359C75.7615 161.694 87.6363 178.137 90.0044 181.421C90.277 181.805 90.4219 182.248 90.4219 182.717C90.4133 187.672 90.3878 217.122 90.3793 231.877V232.679C90.3707 247.801 90.3707 262.922 90.3452 278.044C90.3281 289.438 95.1581 299.537 103.949 306.479C106.667 308.62 109.384 310.905 112.272 313.328L136.584 333.635C167.617 359.554 202.79 388.919 236.574 417.038C242.92 422.318 251.328 425.448 259.651 425.618C262.947 425.686 266.227 425.695 268.399 425.695C269.737 425.695 271.031 425.695 272.284 425.686C273.604 425.686 274.933 425.678 276.27 425.678C278.579 425.678 281.62 425.686 284.661 425.763C285.01 425.772 285.36 425.772 285.7 425.772C294.969 425.772 303.129 422.573 309.297 416.526C315.711 410.232 319.067 401.729 319.016 391.938C318.948 378.684 318.948 365.285 318.94 352.321V340.953L323.31 340.927C325.644 340.91 327.969 340.91 330.286 340.91H340.977L354.002 340.893C358.176 340.893 369.259 340.884 378.416 331.81C387.718 322.598 387.718 311.792 387.727 307.178V284.125C387.727 262.735 387.727 240.611 387.786 218.845C387.812 209.029 384.421 199.937 377.981 192.534C371.294 184.858 282.08 81.6421 281.194 80.6186ZM377.666 284.142V307.187C377.666 311.11 377.666 318.411 371.346 324.662C365.119 330.829 357.614 330.829 354.002 330.837L340.969 330.854H330.303C327.961 330.854 325.618 330.863 323.267 330.871L308.871 330.957V352.236C308.888 365.243 308.888 378.701 308.956 392.015C308.99 399.119 306.741 404.953 302.26 409.354C297.959 413.575 292.387 415.716 285.709 415.716C285.445 415.716 285.181 415.716 284.925 415.708C282.037 415.631 279.15 415.614 276.279 415.614C274.933 415.614 273.596 415.614 272.267 415.622C271.031 415.622 269.737 415.631 268.408 415.631C265.656 415.631 262.743 415.614 259.864 415.554C253.875 415.435 247.58 413.089 243.023 409.303C209.673 381.541 175.803 353.26 143.049 325.908L118.789 305.643C115.833 303.17 113.047 300.824 110.21 298.581C103.804 293.524 100.423 286.436 100.44 278.087C100.465 262.922 100.474 247.758 100.474 232.602V231.903C100.482 215.766 100.482 199.621 100.516 183.485V179.749C100.525 179.101 100.32 178.47 99.937 177.95L97.7393 174.93C90.5752 165.097 84.5867 156.73 78.8963 148.602C75.54 143.809 73.6404 137.881 73.5552 131.894C73.4274 123.118 73.4444 114.273 73.4615 105.71C73.47 102.87 73.47 100.09 73.47 97.318C73.47 93.753 73.47 86.3244 79.3563 80.1325C85.6344 73.5226 93.6333 73.5226 97.0407 73.5226H104.137C123.414 73.5141 143.799 73.5141 164.746 73.5141C192.619 73.5141 221.488 73.5226 250.084 73.5653C257.214 73.5738 264.396 76.7209 268.834 81.7785C270.435 83.6037 272.028 85.4289 273.596 87.2455C274.499 88.286 363.713 191.51 370.417 199.212C375.23 204.739 377.76 211.545 377.743 218.871C377.666 240.602 377.666 262.735 377.666 284.142Z" fill="#003870"/>
<path d="M327.833 179.596C323.293 174.308 318.752 169.02 313.624 163.05C313.513 164.909 313.411 165.89 313.411 166.879C313.403 201.907 313.411 236.926 313.403 271.954C313.403 276.159 313.317 276.21 309.237 276.21C280.334 276.202 251.43 276.261 222.518 276.125C219.844 276.116 218.89 276.875 218.625 278.743V363.545C230.901 373.788 243.176 384.032 255.468 394.258C256.712 395.29 258.628 395.972 260.247 396.006C268.621 396.177 277.003 395.946 285.377 396.16C288.563 396.236 289.44 395.29 289.423 392.091C289.295 366.505 289.397 340.918 289.287 315.332C289.27 312.193 290.121 311.204 293.35 311.23C313.564 311.374 333.779 311.306 353.985 311.289C358.133 311.289 358.15 311.255 358.15 307.178C358.159 277.711 358.133 248.244 358.21 218.777C358.218 216.073 357.452 214.026 355.688 211.997C346.344 201.259 337.11 190.41 327.833 179.596Z" fill="#003870"/>
<path d="M403.145 170.615C396.492 162.973 307.32 59.8083 306.417 58.7592C304.747 56.8317 303.103 54.9468 301.459 53.0705C288.852 38.6823 269.66 30.0768 250.127 30.0512C224.92 30.0171 197.704 30 164.49 30C143.654 30 123.329 30.0085 104.102 30.0085H97.0064C72.192 30.0171 56.5946 40.951 47.8716 50.1195C36.0223 62.5801 30.0168 78.4437 30.0168 97.2669C30.0168 100.022 30.0082 102.776 30.0082 105.591C29.9912 114.316 29.9742 123.339 30.1105 132.482C30.3234 147.101 35.0171 161.677 43.3227 173.532C47.5309 179.536 51.8838 185.651 56.7223 192.355C56.9353 192.653 57.0546 193.011 57.0546 193.37C57.0375 206.197 57.0375 219.024 57.029 231.852V232.534C57.0205 247.69 57.0205 262.828 56.9949 277.976C56.9609 299.519 66.5442 319.46 83.3001 332.688C85.6342 334.53 88.1812 336.671 90.8816 338.931L114.478 358.641L114.912 359.008C147.777 386.454 181.757 414.838 215.243 442.701C227.476 452.876 242.997 458.659 258.96 458.991C262.572 459.068 266.09 459.077 268.416 459.077C269.796 459.077 271.133 459.077 272.42 459.068C273.689 459.068 274.967 459.06 276.245 459.06C279.379 459.06 281.713 459.085 283.809 459.136C284.465 459.154 285.078 459.162 285.692 459.162C303.615 459.162 320.285 452.484 332.637 440.373C345.457 427.793 352.46 410.531 352.366 391.767C352.34 385.993 352.315 380.142 352.306 374.3H354.044C373.245 374.292 389.336 367.98 401.884 355.562C414.619 342.948 421.085 326.675 421.093 307.195V284.756C421.093 263.187 421.093 240.875 421.153 218.948C421.204 200.926 414.977 184.21 403.145 170.615ZM418.572 284.765V307.204C418.563 325.993 412.353 341.66 400.112 353.78C388.059 365.72 372.555 371.776 354.044 371.793H349.793C349.802 378.488 349.819 385.183 349.853 391.801C349.947 409.882 343.209 426.497 330.882 438.599C319.008 450.249 302.959 456.672 285.7 456.672C285.112 456.672 284.516 456.663 283.886 456.646C281.765 456.595 279.413 456.569 276.262 456.569C274.984 456.569 273.706 456.569 272.437 456.578C271.15 456.578 269.813 456.586 268.442 456.586C266.125 456.586 262.623 456.578 259.037 456.501C243.866 456.194 228.507 450.463 216.879 440.799C183.401 412.936 149.412 384.552 116.548 357.106L116.113 356.739L92.5172 337.029C89.7997 334.752 87.2357 332.603 84.876 330.735C68.7334 317.993 59.4909 298.769 59.5249 278.01C59.5505 262.863 59.559 247.715 59.559 232.56V231.877C59.559 218.717 59.5675 205.549 59.5846 192.389C59.5846 192.15 59.5079 191.92 59.3716 191.724C54.3031 184.713 49.7712 178.35 45.4012 172.107C37.3768 160.662 32.8449 146.581 32.6405 132.465C32.5042 123.339 32.5297 114.325 32.5382 105.608C32.5468 102.785 32.5468 100.039 32.5468 97.2839C32.5553 79.126 38.3223 63.8509 49.7116 51.8764C61.9016 39.0576 77.8142 32.5501 97.0234 32.5416H104.119C123.346 32.5331 143.671 32.5331 164.507 32.5331C197.721 32.5331 224.929 32.5501 250.135 32.5842C268.953 32.6098 287.438 40.8913 299.577 54.7421C301.221 56.6185 302.865 58.5033 304.526 60.4223C305.429 61.4628 394.601 164.628 401.254 172.278C412.677 185.404 418.691 201.549 418.64 218.956C418.572 240.884 418.572 263.187 418.572 284.765Z" fill="#003870"/>
<path d="M262.658 172.807C249.062 172.901 235.467 172.952 221.871 172.841C219.137 172.815 218.532 173.822 218.574 176.304C218.694 183.843 218.617 191.382 218.626 198.922C218.634 206.564 218.694 214.214 218.591 221.856C218.557 224.287 219.418 225.157 221.88 225.14C235.475 225.063 249.071 225.071 262.666 225.148C264.975 225.165 265.81 224.321 265.801 222.027C265.741 206.632 265.733 191.237 265.801 175.843C265.81 173.498 264.932 172.79 262.658 172.807Z" fill="#003870"/>
<path d="M166.279 312.833V301.123C166.228 259.707 166.228 218.282 166.322 176.866C166.33 173.66 165.436 172.67 162.267 172.807C156.517 173.037 150.75 172.883 144.991 172.883C140.417 172.883 140.366 172.875 140.357 168.158C140.332 155.885 140.34 143.621 140.357 131.348C140.366 126.7 140.4 126.7 145.136 126.7C189.126 126.7 233.107 126.691 277.097 126.691H281.169C280.479 125.531 280.283 125.045 279.95 124.661C271.381 114.623 262.845 104.559 254.148 94.6314C253.279 93.6421 251.43 93.0707 250.042 93.0707C199.041 93.0024 148.033 93.0195 97.0322 93.0366C92.9604 93.0366 92.9604 93.0621 92.9518 97.301C92.9518 108.73 92.8667 120.158 93.0285 131.587C93.0541 133.531 93.7185 135.775 94.8344 137.361C102.348 148.082 110.014 158.691 117.749 169.259C119.317 171.399 120.015 173.515 120.015 176.184C119.939 210.163 119.981 244.133 119.93 278.112C119.93 280.304 120.535 281.865 122.273 283.238C126.131 286.283 129.88 289.481 133.662 292.637C144.531 301.72 155.41 310.795 166.279 319.878V317.942C166.075 316.995 166.245 315.417 166.279 312.833Z" fill="#003870"/>
</g>
</g>
<g clip-path="url(#clip1_2001_11046)">
<path d="M1007 132.04H1054.04C1082.74 132.12 1097.08 147.84 1097.08 179.19V242.33C1097.08 265.47 1086.77 280.39 1066.14 287.09C1061.19 288.69 1054 289.49 1044.56 289.49H1039.31V356.06H1007V132.04ZM1039.31 163.9V257.52H1046.73C1051.22 257.52 1054.3 257.22 1055.98 256.6C1061.84 254.24 1064.77 249.49 1064.77 242.33V179.2C1064.77 169 1060.09 163.9 1050.72 163.9H1039.31Z" fill="#003870"/>
<path d="M1222.7 312.55C1222.7 343.91 1207.21 359.63 1176.23 359.71C1145.33 359.71 1129.88 343.99 1129.88 312.55V132.04H1162.19V312.55C1162.19 322.67 1166.87 327.74 1176.23 327.74C1185.59 327.74 1190.39 322.68 1190.39 312.55V132.04H1222.7V312.55Z" fill="#003870"/>
<path d="M1254.05 356.06V132.04H1286.36V324.2H1337.85V356.05H1254.05V356.06Z" fill="#003870"/>
<path d="M1379.81 290.06V312.55C1379.81 322.67 1384.53 327.74 1393.97 327.74C1403.41 327.74 1408.01 322.68 1408.01 312.55V308.44C1408.01 297.63 1397.92 285 1377.75 270.53C1357.58 256.14 1347.49 238.64 1347.49 218.01V175.54C1347.49 144.18 1362.94 128.5 1393.85 128.5C1424.76 128.5 1440.32 144.18 1440.32 175.54V205.68H1408.01V175.54C1408.01 165.49 1403.33 160.43 1393.97 160.35H1393.74C1384.45 160.35 1379.81 165.41 1379.81 175.54V217.33C1379.81 227.3 1389.89 239.52 1410.07 253.98C1430.24 268.37 1440.32 285.61 1440.32 305.7V312.55C1440.32 343.99 1424.87 359.71 1393.97 359.71C1362.99 359.63 1347.5 343.91 1347.5 312.55V290.06H1379.81Z" fill="#003870"/>
<path d="M1466.75 132.04H1550.55V163.9H1499.06V257.87H1543.36V289.84H1499.06V324.21H1550.55V356.06H1466.75V132.04Z" fill="#003870"/>
<path d="M1723.68 285.5L1761.24 132.05H1793.55V356.06H1762.61V230.35L1734.98 356.06H1713.06L1684.63 230.35V356.06H1653.35V132.04H1685.66L1723.68 285.5Z" fill="#003870"/>
<path d="M1876.03 183.42L1853.19 356.05H1820.65L1853.99 132.04H1898.29L1931.52 356.05H1898.86L1876.03 183.42Z" fill="#003870"/>
<path d="M1958.84 132.04H1991.15V356.05H1958.84V132.04Z" fill="#003870"/>
<path d="M2054.43 290.06V312.55C2054.43 322.67 2059.15 327.74 2068.59 327.74C2078.03 327.74 2082.63 322.68 2082.63 312.55V308.44C2082.63 297.63 2072.54 285 2052.37 270.53C2032.2 256.14 2022.12 238.64 2022.12 218.01V175.54C2022.12 144.18 2037.57 128.5 2068.47 128.5C2099.37 128.5 2114.94 144.18 2114.94 175.54V205.68H2082.63V175.54C2082.63 165.49 2077.95 160.43 2068.59 160.35H2068.36C2059.07 160.35 2054.43 165.41 2054.43 175.54V217.33C2054.43 227.3 2064.52 239.52 2084.69 253.98C2104.86 268.37 2114.95 285.61 2114.95 305.7V312.55C2114.95 343.99 2099.5 359.71 2068.59 359.71C2037.61 359.63 2022.12 343.91 2022.12 312.55V290.06H2054.43Z" fill="#003870"/>
</g>
<g clip-path="url(#clip2_2001_11046)">
<mask id="mask1_2001_11046" style="mask-type:luminance" maskUnits="userSpaceOnUse" x="30" y="531" width="1332" height="411">
<path d="M1362 531H30V942H1362V531Z" fill="white"/>
</mask>
<g mask="url(#mask1_2001_11046)">
<path d="M388.619 665.715C382.225 658.394 296.525 559.558 295.657 558.553C294.053 556.706 292.473 554.9 290.893 553.102C278.776 539.318 260.331 531.074 241.559 531.049C217.334 531.016 191.177 531 159.256 531C139.231 531 119.698 531.008 101.22 531.008H94.4004C70.5522 531.016 55.562 541.492 47.1787 550.275C35.7908 562.213 30.0191 577.411 30.0191 595.444C30.0191 598.084 30.0109 600.723 30.0109 603.419C29.9945 611.778 29.9782 620.423 30.1092 629.182C30.3138 643.187 34.8248 657.152 42.8069 668.509C46.8512 674.262 51.0347 680.12 55.6848 686.543C55.8895 686.829 56.0041 687.172 56.0041 687.515C55.9878 699.804 55.9878 712.093 55.9796 724.382V725.036C55.9714 739.556 55.9714 754.059 55.9468 768.571C55.9141 789.211 65.1243 808.315 81.2278 820.988C83.471 822.753 85.9189 824.804 88.5141 826.969L111.192 845.852L111.609 846.204C143.194 872.498 175.851 899.691 208.034 926.385C219.79 936.133 234.706 941.673 250.049 941.992C253.52 942.065 256.901 942.074 259.136 942.074C260.462 942.074 261.748 942.074 262.984 942.065C264.204 942.065 265.432 942.057 266.66 942.057C269.672 942.057 271.916 942.082 273.93 942.131C274.56 942.147 275.149 942.155 275.739 942.155C292.964 942.155 308.986 935.757 320.857 924.155C333.178 912.102 339.907 895.564 339.817 877.588C339.793 872.056 339.768 866.451 339.76 860.854H341.43C359.883 860.846 375.348 854.799 387.407 842.902C399.647 830.818 405.861 815.227 405.869 796.565V775.067C405.869 754.403 405.869 733.027 405.926 712.02C405.975 694.754 399.991 678.739 388.619 665.715Z" fill="white"/>
<path d="M284.679 568.039C283.107 566.233 281.543 564.444 279.98 562.663C270.573 551.959 256.205 545.561 241.542 545.544C217.334 545.512 191.193 545.495 159.289 545.495C139.256 545.495 119.722 545.504 101.236 545.504H94.4168C79.4021 545.512 67.0481 550.48 57.7069 560.277C44.5507 574.078 44.5425 590.174 44.5425 595.461C44.5425 598.108 44.5343 600.748 44.5343 603.46C44.5179 611.762 44.5016 620.341 44.6244 628.986C44.7881 640.115 48.3657 651.203 54.6942 660.208C59.4426 666.965 64.3956 673.878 70.0691 681.689C70.3638 682.089 70.5275 682.588 70.5275 683.078C70.5112 696.854 70.503 710.631 70.4948 724.407V725.069C70.4866 739.589 70.4866 754.108 70.462 768.62C70.4375 785.019 77.4536 799.588 90.2169 809.63C92.6238 811.526 95.1536 813.642 97.8389 815.881L120.5 834.748L121.106 835.246C152.625 861.483 185.217 888.619 217.326 915.256C226.429 922.806 238.464 927.276 250.351 927.513C253.692 927.578 256.966 927.586 259.144 927.586C260.421 927.586 261.658 927.586 262.853 927.578H262.959C264.212 927.578 265.44 927.57 266.668 927.57C269.812 927.57 272.161 927.595 274.306 927.652C274.806 927.66 275.272 927.668 275.747 927.668C289.345 927.668 301.429 922.872 310.705 913.802C320.333 904.381 325.384 891.879 325.31 877.654C325.261 867.301 325.245 856.736 325.237 846.367H328.896L341.422 846.351C346.825 846.351 363.273 846.334 377.207 832.582C391.354 818.618 391.354 801.999 391.362 796.54V775.042C391.362 754.37 391.362 732.986 391.419 711.963C391.46 698.252 386.703 685.546 377.681 675.21C371.263 667.888 285.547 569.036 284.679 568.039ZM385.303 775.067V796.557C385.303 801.394 385.295 816.118 372.949 828.309C360.784 840.312 346.203 840.329 341.414 840.329L328.888 840.345H319.186C319.195 852.634 319.195 865.315 319.26 877.703C319.326 890.261 314.905 901.26 306.472 909.512C298.351 917.454 287.733 921.646 275.747 921.646C275.321 921.646 274.896 921.638 274.462 921.63C272.268 921.573 269.869 921.548 266.668 921.548C265.423 921.548 264.187 921.548 262.943 921.556C261.723 921.556 260.454 921.564 259.144 921.564C256.999 921.564 253.765 921.556 250.474 921.491C239.93 921.278 229.254 917.315 221.19 910.623C189.057 883.962 156.432 856.801 124.88 830.532L124.38 830.115L101.736 811.256C99.0178 808.985 96.4471 806.836 93.9747 804.891C82.6932 796.017 76.4958 783.14 76.5203 768.628C76.5449 754.108 76.5531 739.589 76.5531 725.069V724.407C76.5612 709.895 76.5612 695.392 76.5858 680.88C76.5858 680.537 76.4712 680.194 76.2747 679.916C70.0609 671.386 64.7476 663.966 59.6554 656.735C54.0147 648.711 50.83 638.824 50.6826 628.896C50.5598 620.292 50.5762 611.738 50.5926 603.469C50.6008 600.756 50.6008 598.108 50.6008 595.461C50.6008 590.771 50.6089 576.488 62.0951 564.436C70.2492 555.881 81.1295 551.542 94.4249 551.542H101.245C119.739 551.534 139.272 551.534 159.314 551.534C191.201 551.534 217.334 551.55 241.551 551.583C254.502 551.599 267.175 557.229 275.452 566.65C277.016 568.423 278.572 570.204 280.127 571.994C280.995 572.991 366.711 671.851 373.13 679.205C381.177 688.422 385.41 699.755 385.377 711.979C385.303 733.011 385.303 754.394 385.303 775.067Z" fill="#003870"/>
<path d="M271.416 579.495C269.885 577.73 268.338 575.965 266.791 574.208C260.659 567.23 251.211 563.063 241.51 563.047C217.383 563.014 191.316 562.998 159.477 562.998C140.418 562.998 121.851 563.006 104.2 563.006H94.4087C90.6673 563.006 79.2958 563.014 70.4049 572.337C62.0789 581.064 62.0789 591.523 62.0789 595.453C62.0789 598.108 62.0707 600.764 62.0707 603.485C62.0543 611.729 62.0379 620.243 62.1607 628.725C62.2754 636.373 64.715 643.98 69.0459 650.141C73.9825 657.168 85.395 672.922 87.6709 676.067C87.9329 676.435 88.0721 676.86 88.0721 677.309C88.0639 682.057 88.0394 710.271 88.0312 724.407V725.175C88.023 739.662 88.023 754.149 87.9984 768.636C87.982 779.553 92.624 789.227 101.073 795.878C103.684 797.929 106.296 800.119 109.071 802.44L132.436 821.895C162.261 846.726 196.064 874.859 228.534 901.799C234.633 906.857 242.713 909.855 250.712 910.019C253.88 910.084 257.032 910.092 259.12 910.092C260.405 910.092 261.649 910.092 262.853 910.084C264.122 910.084 265.399 910.076 266.684 910.076C268.903 910.076 271.826 910.084 274.748 910.158C275.084 910.166 275.42 910.166 275.747 910.166C284.654 910.166 292.497 907.102 298.425 901.309C304.589 895.278 307.815 887.132 307.766 877.752C307.7 865.054 307.7 852.217 307.692 839.797V828.906L311.892 828.881C314.135 828.865 316.37 828.865 318.597 828.865H328.872L341.389 828.848C345.401 828.848 356.052 828.84 364.853 820.146C373.793 811.322 373.793 800.969 373.801 796.548V774.462C373.801 753.97 373.801 732.774 373.858 711.922C373.883 702.517 370.624 693.807 364.435 686.714C358.009 679.36 272.268 580.475 271.416 579.495ZM364.132 774.479V796.557C364.132 800.315 364.132 807.31 358.058 813.299C352.073 819.207 344.86 819.207 341.389 819.215L328.863 819.231H318.613C316.362 819.231 314.111 819.239 311.851 819.247L298.015 819.329V839.716C298.032 852.176 298.032 865.07 298.097 877.825C298.13 884.632 295.969 890.221 291.662 894.437C287.528 898.481 282.174 900.532 275.755 900.532C275.501 900.532 275.248 900.532 275.002 900.524C272.227 900.451 269.451 900.434 266.692 900.434C265.399 900.434 264.114 900.434 262.836 900.442C261.649 900.442 260.405 900.451 259.128 900.451C256.483 900.451 253.683 900.434 250.916 900.377C245.161 900.263 239.111 898.016 234.731 894.388C202.679 867.791 170.129 840.696 138.65 814.492L115.334 795.078C112.493 792.708 109.816 790.461 107.09 788.312C100.934 783.467 97.6835 776.677 97.6998 768.677C97.7244 754.149 97.7326 739.621 97.7326 725.101V724.431C97.7408 708.972 97.7408 693.504 97.7735 678.045V674.466C97.7817 673.845 97.5852 673.24 97.2168 672.742L95.1046 669.849C88.2195 660.428 82.4641 652.412 76.9953 644.626C73.7697 640.033 71.944 634.355 71.8621 628.619C71.7393 620.211 71.7557 611.738 71.7721 603.534C71.7803 600.813 71.7803 598.149 71.7803 595.494C71.7803 592.078 71.7803 584.961 77.4374 579.029C83.4711 572.697 91.1585 572.697 94.4333 572.697H101.253C119.779 572.688 139.371 572.688 159.502 572.688C186.289 572.688 214.035 572.697 241.518 572.737C248.37 572.746 255.272 575.761 259.537 580.606C261.076 582.355 262.607 584.103 264.114 585.844C264.981 586.841 350.722 685.734 357.165 693.112C361.791 698.407 364.222 704.927 364.206 711.946C364.132 732.766 364.132 753.97 364.132 774.479Z" fill="#003870"/>
<path d="M316.239 674.319C311.876 669.253 307.512 664.187 302.584 658.467C302.477 660.248 302.379 661.188 302.379 662.136C302.371 695.694 302.379 729.244 302.371 762.802C302.371 766.831 302.289 766.88 298.367 766.88C270.589 766.872 242.811 766.929 215.025 766.798C212.455 766.79 211.538 767.517 211.284 769.306V850.55C223.081 860.364 234.878 870.177 246.692 879.974C247.887 880.963 249.729 881.617 251.285 881.649C259.332 881.813 267.388 881.592 275.436 881.796C278.498 881.87 279.341 880.963 279.325 877.899C279.202 853.386 279.3 828.873 279.194 804.36C279.177 801.353 279.996 800.405 283.099 800.43C302.526 800.569 321.954 800.503 341.373 800.487C345.36 800.487 345.376 800.454 345.376 796.548C345.384 768.318 345.36 740.087 345.433 711.856C345.442 709.266 344.705 707.305 343.01 705.36C334.029 695.073 325.155 684.68 316.239 674.319Z" fill="#003870"/>
<path d="M388.619 665.715C382.225 658.394 296.525 559.558 295.657 558.553C294.053 556.706 292.473 554.9 290.893 553.102C278.776 539.318 260.331 531.074 241.559 531.049C217.334 531.016 191.177 531 159.256 531C139.231 531 119.698 531.008 101.22 531.008H94.4004C70.5522 531.016 55.562 541.492 47.1787 550.275C35.7908 562.213 30.0191 577.411 30.0191 595.444C30.0191 598.084 30.0109 600.723 30.0109 603.419C29.9945 611.778 29.9782 620.423 30.1092 629.182C30.3138 643.187 34.8248 657.152 42.8069 668.509C46.8512 674.262 51.0347 680.12 55.6848 686.543C55.8895 686.829 56.0041 687.172 56.0041 687.515C55.9878 699.804 55.9878 712.093 55.9796 724.382V725.036C55.9714 739.556 55.9714 754.059 55.9468 768.571C55.9141 789.211 65.1243 808.315 81.2278 820.988C83.471 822.753 85.9189 824.804 88.5141 826.969L111.192 845.852L111.609 846.204C143.194 872.498 175.851 899.691 208.034 926.385C219.79 936.133 234.706 941.673 250.049 941.992C253.52 942.065 256.901 942.074 259.136 942.074C260.462 942.074 261.748 942.074 262.984 942.065C264.204 942.065 265.432 942.057 266.66 942.057C269.672 942.057 271.916 942.082 273.93 942.131C274.56 942.147 275.149 942.155 275.739 942.155C292.964 942.155 308.986 935.757 320.857 924.155C333.178 912.102 339.907 895.564 339.817 877.588C339.793 872.056 339.768 866.451 339.76 860.854H341.43C359.883 860.846 375.348 854.799 387.407 842.902C399.647 830.818 405.861 815.227 405.869 796.565V775.067C405.869 754.403 405.869 733.027 405.926 712.02C405.975 694.754 399.991 678.739 388.619 665.715ZM403.445 775.075V796.573C403.437 814.574 397.469 829.584 385.705 841.195C374.12 852.634 359.22 858.435 341.43 858.452H337.345C337.353 864.866 337.369 871.28 337.402 877.621C337.492 894.943 331.016 910.86 319.17 922.455C307.758 933.617 292.334 939.769 275.747 939.769C275.182 939.769 274.609 939.761 274.003 939.745C271.965 939.696 269.705 939.671 266.676 939.671C265.448 939.671 264.22 939.671 263 939.679C261.764 939.679 260.479 939.688 259.16 939.688C256.934 939.688 253.569 939.679 250.122 939.606C235.541 939.312 220.781 933.821 209.605 924.563C177.431 897.869 144.766 870.676 113.181 844.381L112.763 844.03L90.086 825.147C87.4744 822.965 85.0101 820.906 82.7424 819.117C67.2283 806.909 58.3456 788.492 58.3783 768.604C58.4029 754.092 58.4111 739.58 58.4111 725.061V724.407C58.4111 711.799 58.4192 699.183 58.4356 686.575C58.4356 686.347 58.3619 686.126 58.2309 685.938C53.3598 679.221 49.0044 673.126 44.8045 667.145C37.0925 656.179 32.7371 642.689 32.5406 629.166C32.4097 620.423 32.4342 611.786 32.4424 603.436C32.4506 600.731 32.4506 598.1 32.4506 595.461C32.4588 578.065 38.0013 563.431 48.9471 551.959C60.6624 539.678 75.9555 533.443 94.4168 533.435H101.236C119.714 533.427 139.248 533.427 159.273 533.427C191.193 533.427 217.342 533.443 241.567 533.476C259.652 533.5 277.417 541.434 289.083 554.704C290.663 556.502 292.244 558.307 293.84 560.146C294.708 561.143 380.408 659.979 386.802 667.308C397.78 679.883 403.56 695.351 403.511 712.028C403.445 733.036 403.445 754.403 403.445 775.075Z" fill="#003870"/>
<path d="M253.602 667.815C240.535 667.905 227.469 667.954 214.403 667.847C211.775 667.823 211.194 668.787 211.235 671.165C211.349 678.388 211.276 685.611 211.284 692.834C211.292 700.156 211.349 707.485 211.251 714.806C211.218 717.135 212.045 717.968 214.411 717.952C227.477 717.878 240.544 717.887 253.61 717.96C255.828 717.976 256.631 717.167 256.623 714.969C256.565 700.221 256.557 685.472 256.623 670.724C256.631 668.477 255.787 667.798 253.602 667.815Z" fill="#003870"/>
<path d="M160.976 801.966V790.747C160.927 751.069 160.927 711.382 161.017 671.704C161.025 668.632 160.165 667.684 157.12 667.815C151.594 668.035 146.051 667.888 140.517 667.888C136.12 667.888 136.071 667.88 136.063 663.362C136.039 651.604 136.047 639.854 136.063 628.096C136.071 623.643 136.104 623.642 140.656 623.642C182.933 623.642 225.201 623.634 267.478 623.634H271.392C270.729 622.523 270.54 622.057 270.221 621.69C261.985 612.073 253.782 602.431 245.423 592.92C244.588 591.972 242.811 591.425 241.477 591.425C192.462 591.359 143.439 591.376 94.425 591.392C90.5117 591.392 90.5117 591.417 90.5035 595.478C90.5035 606.427 90.4216 617.375 90.5771 628.324C90.6017 630.187 91.2403 632.336 92.3128 633.856C99.5336 644.127 106.902 654.292 114.335 664.416C115.842 666.467 116.513 668.493 116.513 671.05C116.439 703.604 116.48 736.149 116.431 768.702C116.431 770.802 117.012 772.297 118.682 773.613C122.391 776.53 125.993 779.594 129.628 782.617C140.075 791.319 150.529 800.013 160.976 808.715V806.86C160.779 805.953 160.943 804.442 160.976 801.966Z" fill="#003870"/>
<path d="M454.963 650.286H493.474C516.97 650.352 528.71 663.197 528.71 688.813V740.404C528.71 759.312 520.269 771.503 503.38 776.977C499.327 778.285 493.441 778.938 485.713 778.938H481.415V833.333H454.963V650.286ZM481.415 676.319V752.816H487.489C491.165 752.816 493.687 752.571 495.062 752.064C499.86 750.136 502.258 746.255 502.258 740.404V688.821C502.258 680.486 498.427 676.319 490.756 676.319H481.415Z" fill="#003870"/>
<path d="M631.553 797.781C631.553 823.405 618.872 836.25 593.509 836.315C568.212 836.315 555.563 823.47 555.563 797.781V650.286H582.015V797.781C582.015 806.05 585.846 810.192 593.509 810.192C601.172 810.192 605.101 806.058 605.101 797.781V650.286H631.553V797.781Z" fill="#003870"/>
<path d="M657.219 833.333V650.286H683.671V807.3H725.825V833.324H657.219V833.333Z" fill="#003870"/>
<path d="M760.177 779.405V797.781C760.177 806.051 764.041 810.193 771.769 810.193C779.498 810.193 783.264 806.059 783.264 797.781V794.423C783.264 785.59 775.003 775.27 758.49 763.447C741.977 751.689 733.717 737.39 733.717 720.533V685.831C733.717 660.207 746.365 647.395 771.671 647.395C796.977 647.395 809.715 660.207 809.715 685.831V710.458H783.264V685.831C783.264 677.619 779.432 673.485 771.769 673.419H771.581C763.975 673.419 760.177 677.554 760.177 685.831V719.977C760.177 728.124 768.429 738.109 784.95 749.924C801.463 761.682 809.715 775.769 809.715 792.184V797.781C809.715 823.471 797.067 836.316 771.769 836.316C746.406 836.25 733.725 823.406 733.725 797.781V779.405H760.177Z" fill="#003870"/>
<path d="M831.353 650.286H899.959V676.319H857.805V753.102H894.073V779.224H857.805V807.308H899.959V833.333H831.353V650.286Z" fill="#003870"/>
<path d="M1041.7 775.678L1072.45 650.295H1098.9V833.333H1073.57V730.615L1050.95 833.333H1033L1009.73 730.615V833.333H984.12V650.286H1010.57L1041.7 775.678Z" fill="#003870"/>
<path d="M1166.42 692.269L1147.73 833.324H1121.09L1148.38 650.286H1184.65L1211.85 833.324H1185.11L1166.42 692.269Z" fill="#003870"/>
<path d="M1234.22 650.286H1260.67V833.324H1234.22V650.286Z" fill="#003870"/>
<path d="M1312.48 779.405V797.781C1312.48 806.051 1316.34 810.193 1324.07 810.193C1331.8 810.193 1335.56 806.059 1335.56 797.781V794.423C1335.56 785.59 1327.3 775.27 1310.79 763.447C1294.28 751.689 1286.03 737.39 1286.03 720.533V685.831C1286.03 660.207 1298.67 647.395 1323.97 647.395C1349.27 647.395 1362.02 660.207 1362.02 685.831V710.458H1335.56V685.831C1335.56 677.619 1331.73 673.485 1324.07 673.419H1323.88C1316.28 673.419 1312.48 677.554 1312.48 685.831V719.977C1312.48 728.124 1320.74 738.109 1337.25 749.924C1353.76 761.682 1362.02 775.769 1362.02 792.184V797.781C1362.02 823.471 1349.38 836.316 1324.07 836.316C1298.71 836.25 1286.03 823.406 1286.03 797.781V779.405H1312.48Z" fill="#003870"/>
</g>
</g>
<g clip-path="url(#clip3_2001_11046)">
<path d="M1863.82 790.653C1863.66 790.653 1863.5 790.653 1863.35 790.653C1863.35 790.653 1863.35 790.653 1863.36 790.653C1863.5 790.647 1863.67 790.653 1863.82 790.653Z" fill="#1D3B6E"/>
<path d="M1885.19 500.076C1883.88 498.559 1882.57 497.06 1881.26 495.561C1873.38 486.583 1861.36 481.211 1849.09 481.199C1828.83 481.171 1806.96 481.159 1780.26 481.159C1763.49 481.159 1747.15 481.165 1731.68 481.171H1725.97C1713.4 481.176 1703.07 485.348 1695.25 493.564C1684.24 505.14 1684.24 518.649 1684.24 523.089C1684.24 525.309 1684.23 527.53 1684.23 529.801C1684.22 536.765 1684.2 543.963 1684.31 551.224C1684.44 560.562 1687.43 569.866 1692.73 577.419C1696.71 583.089 1700.85 588.886 1705.6 595.443C1705.85 595.781 1705.99 596.193 1705.99 596.61C1705.97 608.169 1705.97 619.733 1705.97 631.291V631.846C1705.96 644.028 1705.96 656.21 1705.94 668.392C1705.91 682.153 1711.79 694.375 1722.47 702.809C1724.48 704.4 1726.61 706.174 1728.85 708.056L1747.81 723.889L1748.31 724.312C1774.69 746.33 1801.97 769.098 1828.83 791.453C1836.45 797.788 1846.52 801.535 1856.47 801.741C1859.27 801.799 1862.01 801.804 1863.83 801.804C1864.9 801.804 1865.93 801.804 1866.93 801.799H1867.02C1868.07 801.793 1869.09 801.793 1870.12 801.793C1872.75 801.793 1874.72 801.816 1876.51 801.856C1876.93 801.867 1877.32 801.873 1877.72 801.873C1889.1 801.873 1899.22 797.85 1906.97 790.24C1915.03 782.338 1919.26 771.85 1919.2 759.908C1919.15 751.223 1919.14 742.354 1919.14 733.656H1920.54H1922.2L1932.68 733.645C1937.2 733.639 1950.97 733.633 1962.62 722.098C1974.46 710.385 1974.46 696.435 1974.46 691.852V673.816C1974.46 656.467 1974.46 638.529 1974.51 620.883C1974.54 609.376 1970.56 598.71 1963.02 590.042C1957.65 583.862 1885.92 500.911 1885.19 500.076ZM1969.4 673.805V691.84C1969.4 695.903 1969.39 708.257 1959.06 718.487C1948.88 728.564 1936.67 728.569 1932.66 728.575L1922.18 728.587H1920.53H1917.15H1914.06C1914.06 738.897 1914.06 749.54 1914.12 759.931C1914.17 770.471 1910.47 779.701 1903.42 786.618C1896.63 793.279 1887.74 796.803 1877.71 796.803C1877.35 796.803 1877 796.798 1876.63 796.792C1874.8 796.746 1872.78 796.723 1870.11 796.723C1869.07 796.723 1868.04 796.729 1867 796.729C1865.97 796.729 1864.91 796.735 1863.82 796.735C1862.02 796.735 1859.31 796.729 1856.56 796.672C1847.74 796.489 1838.81 793.17 1832.05 787.551C1805.16 765.178 1777.86 742.388 1751.45 720.347L1751.04 719.998L1732.08 704.171C1729.81 702.266 1727.66 700.463 1725.59 698.827C1716.15 691.377 1710.96 680.574 1710.99 668.398C1711 656.216 1711.01 644.028 1711.01 631.846V631.291C1711.02 619.115 1711.02 606.938 1711.04 594.768C1711.04 594.482 1710.95 594.196 1710.78 593.961C1705.58 586.803 1701.13 580.578 1696.87 574.507C1692.15 567.772 1689.49 559.481 1689.37 551.15C1689.26 543.929 1689.28 536.753 1689.29 529.813C1689.29 527.535 1689.3 525.315 1689.3 523.095C1689.3 519.158 1689.3 507.171 1698.92 497.06C1705.74 489.885 1714.84 486.246 1725.97 486.24H1731.68C1747.15 486.234 1763.5 486.229 1780.27 486.229C1806.95 486.229 1828.82 486.24 1849.09 486.269C1859.92 486.28 1870.53 491.007 1877.45 498.909C1878.76 500.396 1880.06 501.89 1881.37 503.394C1882.09 504.23 1953.82 587.192 1959.2 593.36C1965.93 601.096 1969.48 610.606 1969.45 620.86C1969.4 638.506 1969.4 656.45 1969.4 673.805Z" fill="#1D3B6E"/>
<path d="M1874.09 509.689C1872.81 508.207 1871.52 506.725 1870.22 505.254C1865.09 499.401 1857.18 495.899 1849.07 495.887C1828.87 495.859 1807.06 495.847 1780.42 495.847C1764.47 495.847 1748.93 495.853 1734.16 495.859H1731.68H1725.97C1722.84 495.859 1713.32 495.864 1705.88 503.692C1698.92 511.016 1698.91 519.788 1698.91 523.089C1698.91 525.321 1698.9 527.547 1698.9 529.83C1698.89 536.748 1698.87 543.894 1698.97 551.012C1699.06 557.432 1701.11 563.812 1704.74 568.979C1708.87 574.873 1718.42 588.096 1720.32 590.734C1720.54 591.037 1720.65 591.398 1720.65 591.775C1720.65 595.764 1720.62 619.435 1720.62 631.297V631.852V631.943C1720.61 644.097 1720.61 656.256 1720.59 668.415C1720.57 677.576 1724.46 685.689 1731.53 691.274C1733.72 692.996 1735.91 694.833 1738.23 696.778L1757.78 713.103C1782.73 733.937 1811.02 757.551 1838.19 780.153C1843.3 784.398 1850.06 786.91 1856.75 787.048C1859.41 787.105 1862.04 787.11 1863.79 787.11C1864.87 787.11 1865.91 787.11 1866.91 787.105C1867.98 787.099 1869.05 787.099 1870.12 787.099C1871.98 787.099 1874.42 787.105 1876.87 787.168C1877.15 787.173 1877.43 787.179 1877.7 787.179C1885.16 787.179 1891.72 784.61 1896.68 779.746C1901.84 774.688 1904.55 767.85 1904.5 759.977C1904.45 749.323 1904.45 738.548 1904.44 728.135V728.037L1904.44 718.991L1907.96 718.968C1909.83 718.957 1911.7 718.951 1913.57 718.951C1914.77 718.951 1915.96 718.951 1917.15 718.957H1917.24H1920.33H1922.17L1932.65 718.945C1936.01 718.945 1944.92 718.939 1952.29 711.638C1959.77 704.234 1959.78 695.542 1959.78 691.835V673.301C1959.78 656.101 1959.78 638.317 1959.82 620.826C1959.84 612.935 1957.12 605.622 1951.94 599.672C1946.56 593.486 1874.81 510.513 1874.09 509.689ZM1951.69 673.301V691.829C1951.69 694.982 1951.68 700.847 1946.6 705.876C1941.59 710.831 1935.56 710.837 1932.65 710.837L1922.17 710.849C1921.55 710.849 1920.95 710.849 1920.34 710.849C1919.28 710.849 1918.23 710.849 1917.17 710.849C1915.97 710.849 1914.78 710.843 1913.58 710.843C1911.7 710.843 1909.82 710.849 1907.92 710.86L1896.35 710.929L1896.36 728.037C1896.36 738.497 1896.36 749.311 1896.42 760.017C1896.45 765.728 1894.64 770.42 1891.03 773.956C1887.57 777.349 1883.09 779.071 1877.72 779.071C1877.51 779.071 1877.3 779.065 1877.1 779.065C1874.77 779.008 1872.45 778.991 1870.14 778.991C1869.06 778.991 1867.99 778.997 1866.92 778.997C1865.92 778.997 1864.88 779.002 1863.82 779.002C1861.6 779.002 1859.27 778.991 1856.95 778.945C1852.13 778.848 1847.07 776.965 1843.4 773.921C1816.58 751.606 1789.34 728.867 1763 706.878L1743.48 690.582C1741.11 688.59 1738.86 686.714 1736.58 684.905C1731.43 680.837 1728.72 675.144 1728.72 668.426C1728.74 656.233 1728.74 644.045 1728.75 631.857V631.297C1728.76 618.319 1728.76 605.348 1728.78 592.37L1728.78 589.366C1728.78 588.846 1728.62 588.336 1728.31 587.919L1726.55 585.493C1720.79 577.585 1715.97 570.856 1711.39 564.327C1708.69 560.476 1707.17 555.704 1707.1 550.898C1706.99 543.843 1707.01 536.736 1707.02 529.853C1707.03 527.57 1707.03 525.332 1707.03 523.101C1707.03 520.234 1707.03 514.266 1711.77 509.288C1716.82 503.978 1723.25 503.972 1725.99 503.972H1731.7C1747.21 503.967 1763.6 503.961 1780.45 503.961C1802.86 503.961 1826.08 503.972 1849.08 504.001C1854.81 504.007 1860.59 506.536 1864.16 510.604C1865.44 512.069 1866.72 513.539 1867.99 514.998C1868.71 515.834 1940.47 598.819 1945.85 605.004C1949.72 609.45 1951.76 614.915 1951.74 620.808C1951.68 638.306 1951.68 656.096 1951.69 673.301Z" fill="#1D3B6E"/>
<path d="M1911.61 589.258C1907.96 585.006 1904.31 580.755 1900.18 575.954C1900.09 577.448 1900.01 578.243 1900.01 579.033C1900 607.19 1900.01 635.348 1900 663.505C1900 666.881 1899.93 666.927 1896.65 666.927C1873.4 666.921 1850.15 666.967 1826.91 666.858C1824.75 666.847 1823.99 667.465 1823.78 668.964V683.24C1823.78 685.5 1823.79 687.761 1823.78 690.021V737.135C1833.65 745.369 1843.53 753.603 1853.41 761.825C1854.41 762.655 1855.95 763.204 1857.25 763.227C1863.99 763.364 1870.73 763.181 1877.46 763.347C1880.02 763.41 1880.73 762.649 1880.71 760.08C1880.61 739.51 1880.69 718.939 1880.6 698.369C1880.59 695.846 1881.27 695.05 1883.86 695.068C1900.12 695.182 1916.37 695.13 1932.64 695.119C1935.97 695.119 1935.99 695.096 1935.99 691.812C1935.99 668.123 1935.97 644.434 1936.03 620.745C1936.04 618.571 1935.42 616.929 1934 615.298C1926.49 606.675 1919.06 597.955 1911.61 589.258Z" fill="#1D3B6E"/>
<path d="M1972.17 582.037C1966.82 575.891 1895.11 492.952 1894.38 492.117C1893.04 490.572 1891.71 489.055 1890.39 487.545C1880.25 475.975 1864.81 469.057 1849.1 469.04C1828.83 469.011 1806.94 469 1780.23 469C1763.47 469 1747.13 469.006 1731.67 469.011H1725.96C1706 469.017 1693.46 477.812 1686.45 485.182C1676.92 495.201 1672.09 507.949 1672.08 523.084C1672.08 525.298 1672.08 527.512 1672.07 529.773C1672.06 536.788 1672.04 544.037 1672.15 551.396C1672.32 563.149 1676.1 574.867 1682.78 584.4C1686.17 589.223 1689.66 594.144 1693.55 599.529C1693.72 599.763 1693.82 600.055 1693.82 600.347C1693.8 610.658 1693.8 620.974 1693.8 631.285V631.835C1693.79 644.017 1693.79 656.193 1693.77 668.369C1693.74 685.684 1701.45 701.716 1714.93 712.353C1716.81 713.835 1718.86 715.552 1721.03 717.372L1740.01 733.221L1740.36 733.513C1766.79 755.577 1794.12 778.39 1821.05 800.797C1830.89 808.98 1843.37 813.626 1856.21 813.889C1859.11 813.946 1861.94 813.958 1863.81 813.958C1864.92 813.958 1866 813.958 1867.03 813.952C1868.06 813.946 1869.08 813.946 1870.11 813.946C1872.63 813.946 1874.51 813.963 1876.19 814.009C1876.72 814.021 1877.22 814.026 1877.71 814.026C1892.12 814.026 1905.53 808.659 1915.47 798.921C1925.77 788.804 1931.41 774.928 1931.33 759.84C1931.31 755.194 1931.29 750.496 1931.29 745.798H1932.68C1948.12 745.787 1961.07 740.723 1971.15 730.732C1981.4 720.593 1986.6 707.507 1986.6 691.846V673.805C1986.6 656.462 1986.6 638.529 1986.65 620.906C1986.69 606.406 1981.69 592.966 1972.17 582.037ZM1984.58 673.805V691.846C1984.58 706.946 1979.58 719.546 1969.74 729.29C1960.04 738.886 1947.57 743.761 1932.68 743.767L1929.26 743.773C1929.27 749.145 1929.28 754.536 1929.31 759.851C1929.39 774.385 1923.97 787.746 1914.05 797.473C1904.5 806.84 1891.59 812.001 1877.71 812.001C1877.24 812.001 1876.76 811.995 1876.25 811.984C1874.55 811.938 1872.65 811.921 1870.11 811.921C1869.09 811.921 1868.06 811.926 1867.03 811.926C1866 811.926 1864.92 811.932 1863.81 811.932C1861.95 811.932 1859.14 811.926 1856.25 811.864C1844.05 811.612 1831.69 807.011 1822.34 799.235C1795.42 776.834 1768.09 754.021 1741.65 731.957L1741.31 731.665L1722.33 715.821C1720.14 713.99 1718.08 712.262 1716.18 710.763C1703.2 700.515 1695.77 685.066 1695.79 668.375C1695.81 656.199 1695.82 644.022 1695.82 631.84V631.291C1695.83 620.711 1695.83 610.126 1695.85 599.546C1695.85 599.357 1695.78 599.168 1695.67 599.008C1691.6 593.372 1687.96 588.256 1684.44 583.238C1677.98 574.037 1674.34 562.719 1674.18 551.373C1674.07 544.032 1674.08 536.788 1674.1 529.784C1674.1 527.518 1674.11 525.304 1674.11 523.089C1674.11 508.493 1678.76 496.213 1687.92 486.583C1697.71 476.278 1710.52 471.048 1725.97 471.043H1731.67C1747.14 471.037 1763.48 471.031 1780.24 471.031C1806.95 471.031 1828.83 471.043 1849.1 471.071C1864.24 471.089 1879.1 477.749 1888.87 488.884C1890.19 490.394 1891.51 491.905 1892.85 493.45C1893.57 494.285 1965.29 577.224 1970.64 583.376C1979.83 593.927 1984.67 606.904 1984.63 620.9C1984.58 638.529 1984.58 656.462 1984.58 673.805Z" fill="#1D3B6E"/>
<path d="M1859.18 583.798C1848.24 583.873 1837.31 583.919 1826.38 583.827C1824.18 583.81 1823.69 584.617 1823.72 586.614C1823.82 592.673 1823.76 598.738 1823.76 604.798C1823.77 610.943 1823.81 617.089 1823.74 623.234C1823.72 625.191 1824.41 625.889 1826.39 625.877C1837.32 625.815 1848.26 625.826 1859.19 625.883C1861.05 625.895 1861.72 625.219 1861.72 623.377C1861.67 611 1861.66 598.624 1861.72 586.247C1861.72 584.353 1861.01 583.787 1859.18 583.798Z" fill="#1D3B6E"/>
<path d="M1781.66 696.366V686.948C1781.62 653.652 1781.62 620.351 1781.7 587.055C1781.7 584.48 1780.98 583.685 1778.43 583.788C1773.81 583.976 1769.17 583.85 1764.54 583.85C1760.86 583.85 1760.82 583.845 1760.82 580.051C1760.8 570.187 1760.8 560.322 1760.82 550.463C1760.82 546.727 1760.86 546.727 1764.67 546.727C1800.04 546.721 1835.42 546.721 1870.79 546.715C1871.69 546.715 1872.59 546.715 1874.07 546.715C1873.52 545.783 1873.36 545.388 1873.09 545.084C1866.2 537.017 1859.34 528.926 1852.34 520.944C1851.64 520.148 1850.15 519.685 1849.03 519.685C1808.01 519.628 1766.99 519.645 1725.98 519.656C1722.7 519.656 1722.7 519.679 1722.7 523.084C1722.7 532.273 1722.63 541.462 1722.76 550.646C1722.79 552.214 1723.32 554.011 1724.22 555.287C1730.26 563.904 1736.42 572.435 1742.64 580.927C1743.9 582.649 1744.47 584.348 1744.46 586.494C1744.4 613.81 1744.43 641.121 1744.39 668.438C1744.39 670.2 1744.88 671.459 1746.27 672.558C1749.38 675.006 1752.39 677.576 1755.43 680.11C1764.17 687.412 1772.92 694.707 1781.66 702.008V700.458C1781.5 699.714 1781.65 698.449 1781.66 696.366Z" fill="#1D3B6E"/>
<path d="M1863.35 790.647C1863.5 790.647 1863.66 790.647 1863.82 790.647C1863.67 790.653 1863.5 790.647 1863.35 790.647Z" fill="#1D3B6E"/>
<path d="M1605 859.046H1634.81C1653 859.092 1662.09 869.066 1662.09 888.955V929.003C1662.09 943.679 1655.55 953.144 1642.48 957.389C1639.34 958.402 1634.78 958.911 1628.8 958.911H1625.47V1001.13H1605V859.046ZM1625.48 879.251V938.633H1630.19C1633.03 938.633 1634.98 938.438 1636.05 938.055C1639.76 936.561 1641.62 933.54 1641.62 929.003V888.955C1641.62 882.489 1638.65 879.251 1632.72 879.251H1625.48Z" fill="#1D3B6E"/>
<path d="M1741.7 973.531C1741.7 993.42 1731.88 1003.39 1712.25 1003.44C1692.67 1003.44 1682.87 993.472 1682.87 973.531V859.041H1703.35V973.531C1703.35 979.951 1706.31 983.161 1712.25 983.161C1718.23 983.161 1721.22 979.951 1721.22 973.531V859.041H1741.7V973.531Z" fill="#1D3B6E"/>
<path d="M1761.57 1001.12V859.041H1782.05V980.918H1814.68V1001.12H1761.57Z" fill="#1D3B6E"/>
<path d="M1841.27 959.266V973.531C1841.27 979.951 1844.26 983.161 1850.24 983.161C1856.18 983.161 1859.14 979.951 1859.14 973.531V970.927C1859.14 964.072 1852.75 956.056 1839.97 946.884C1827.18 937.757 1820.79 926.657 1820.79 913.571V886.632C1820.79 866.742 1830.58 856.798 1850.17 856.798C1869.8 856.798 1879.62 866.742 1879.62 886.632V905.749H1859.14V886.632C1859.14 880.258 1856.18 877.048 1850.24 877.002H1850.1C1844.21 877.002 1841.27 880.212 1841.27 886.632V913.136C1841.27 919.459 1847.66 927.212 1860.45 936.378C1873.23 945.505 1879.62 956.439 1879.62 969.182V973.525C1879.62 993.466 1869.83 1003.43 1850.25 1003.43C1830.61 1003.38 1820.8 993.414 1820.8 973.525V959.26H1841.27V959.266Z" fill="#1D3B6E"/>
<path d="M1896.37 859.046H1949.48V879.251H1916.84V938.85H1944.92V959.123H1916.84V980.923H1949.48V1001.13H1896.37V859.046Z" fill="#1D3B6E"/>
<path d="M2114.9 919.836H2054.15V859.046H2033.67V919.836H1972.93V940.332H2033.67V1001.12H2054.15V940.332H2114.9V919.836Z" fill="#1D3B6E"/>
</g>
<defs>
<clipPath id="clip0_2001_11046">
<rect width="391" height="429" fill="white" transform="translate(30 30)"/>
</clipPath>
<clipPath id="clip1_2001_11046">
<rect width="1108" height="232" fill="white" transform="translate(1007 128.5)"/>
</clipPath>
<clipPath id="clip2_2001_11046">
<rect width="1332" height="411" fill="white" transform="translate(30 531)"/>
</clipPath>
<clipPath id="clip3_2001_11046">
<rect width="510" height="535" fill="white" transform="translate(1605 469)"/>
</clipPath>
</defs>
</svg>
