<svg width="1108" height="233" viewBox="0 0 1108 233" fill="none" xmlns="http://www.w3.org/2000/svg">
<g clip-path="url(#clip0_2001_16746)">
<path d="M0 4.04001H47.04C75.74 4.12001 90.08 19.84 90.08 51.19V114.33C90.08 137.47 79.77 152.39 59.14 159.09C54.19 160.69 47 161.49 37.56 161.49H32.31V228.06H0V4.04001ZM32.31 35.9V129.52H39.73C44.22 129.52 47.3 129.22 48.98 128.6C54.84 126.24 57.77 121.49 57.77 114.33V51.2C57.77 41 53.09 35.9 43.72 35.9H32.31Z" fill="#003870"/>
<path d="M215.7 184.55C215.7 215.91 200.21 231.63 169.23 231.71C138.33 231.71 122.88 215.99 122.88 184.55V4.04001H155.19V184.55C155.19 194.67 159.87 199.74 169.23 199.74C178.59 199.74 183.39 194.68 183.39 184.55V4.04001H215.7V184.55Z" fill="#003870"/>
<path d="M247.05 228.06V4.04001H279.36V196.2H330.85V228.05H247.05V228.06Z" fill="#003870"/>
<path d="M372.81 162.06V184.55C372.81 194.67 377.53 199.74 386.97 199.74C396.41 199.74 401.01 194.68 401.01 184.55V180.44C401.01 169.63 390.92 157 370.75 142.53C350.58 128.14 340.49 110.64 340.49 90.01V47.54C340.49 16.18 355.94 0.5 386.85 0.5C417.76 0.5 433.32 16.18 433.32 47.54V77.68H401.01V47.54C401.01 37.49 396.33 32.43 386.97 32.35H386.74C377.45 32.35 372.81 37.41 372.81 47.54V89.33C372.81 99.3 382.89 111.52 403.07 125.98C423.24 140.37 433.32 157.61 433.32 177.7V184.55C433.32 215.99 417.87 231.71 386.97 231.71C355.99 231.63 340.5 215.91 340.5 184.55V162.06H372.81Z" fill="#003870"/>
<path d="M459.75 4.04001H543.55V35.9H492.06V129.87H536.36V161.84H492.06V196.21H543.55V228.06H459.75V4.04001Z" fill="#003870"/>
<path d="M716.68 157.5L754.24 4.05H786.55V228.06H755.61V102.35L727.98 228.06H706.06L677.63 102.35V228.06H646.35V4.04001H678.66L716.68 157.5Z" fill="#003870"/>
<path d="M869.03 55.42L846.19 228.05H813.65L846.99 4.04001H891.29L924.52 228.05H891.86L869.03 55.42Z" fill="#003870"/>
<path d="M951.84 4.04001H984.15V228.05H951.84V4.04001Z" fill="#003870"/>
<path d="M1047.43 162.06V184.55C1047.43 194.67 1052.15 199.74 1061.59 199.74C1071.03 199.74 1075.63 194.68 1075.63 184.55V180.44C1075.63 169.63 1065.54 157 1045.37 142.53C1025.2 128.14 1015.12 110.64 1015.12 90.01V47.54C1015.12 16.18 1030.57 0.5 1061.47 0.5C1092.37 0.5 1107.94 16.18 1107.94 47.54V77.68H1075.63V47.54C1075.63 37.49 1070.95 32.43 1061.59 32.35H1061.36C1052.07 32.35 1047.43 37.41 1047.43 47.54V89.33C1047.43 99.3 1057.52 111.52 1077.69 125.98C1097.86 140.37 1107.95 157.61 1107.95 177.7V184.55C1107.95 215.99 1092.5 231.71 1061.59 231.71C1030.61 231.63 1015.12 215.91 1015.12 184.55V162.06H1047.43Z" fill="#003870"/>
</g>
<defs>
<clipPath id="clip0_2001_16746">
<rect width="1108" height="232" fill="white" transform="translate(0 0.5)"/>
</clipPath>
</defs>
</svg>
