<svg width="391" height="429" viewBox="0 0 391 429" fill="none" xmlns="http://www.w3.org/2000/svg">
<g clip-path="url(#clip0_2001_16745)">
<mask id="mask0_2001_16745" style="mask-type:luminance" maskUnits="userSpaceOnUse" x="0" y="0" width="391" height="429">
<path d="M391 0H0V429H391V0Z" fill="white"/>
</mask>
<g mask="url(#mask0_2001_16745)">
<path d="M373.145 140.615C366.492 132.973 277.32 29.8083 276.417 28.7592C274.747 26.8317 273.103 24.9468 271.459 23.0705C258.852 8.68234 239.66 0.0767594 220.127 0.051173C194.92 0.0170577 167.704 0 134.49 0C113.654 0 93.3286 0.00852883 74.1023 0.00852883H67.0064C42.192 0.0170577 26.5946 10.951 17.8716 20.1195C6.02232 32.5801 0.0167638 48.4437 0.0167638 67.2669C0.0167638 70.0217 0.00824524 72.7765 0.00824524 75.591C-0.00879179 84.316 -0.0258288 93.3395 0.110467 102.482C0.32343 117.101 5.01714 131.677 13.3227 143.532C17.5309 149.536 21.8838 155.651 26.7223 162.355C26.9353 162.653 27.0546 163.011 27.0546 163.37C27.0375 176.197 27.0375 189.024 27.029 201.852V202.534C27.0205 217.69 27.0205 232.828 26.9949 247.976C26.9609 269.519 36.5442 289.46 53.3001 302.688C55.6342 304.53 58.1812 306.671 60.8816 308.931L84.4779 328.641L84.9123 329.008C117.777 356.454 151.757 384.838 185.243 412.701C197.476 422.876 212.997 428.659 228.96 428.991C232.572 429.068 236.09 429.077 238.416 429.077C239.796 429.077 241.133 429.077 242.42 429.068C243.689 429.068 244.967 429.06 246.245 429.06C249.379 429.06 251.713 429.085 253.809 429.136C254.465 429.154 255.078 429.162 255.692 429.162C273.615 429.162 290.285 422.484 302.637 410.373C315.457 397.793 322.46 380.531 322.366 361.767C322.34 355.993 322.315 350.142 322.306 344.3H324.044C343.245 344.292 359.336 337.98 371.884 325.562C384.619 312.948 391.085 296.675 391.093 277.195V254.756C391.093 233.187 391.093 210.875 391.153 188.948C391.204 170.926 384.977 154.21 373.145 140.615Z" fill="white"/>
<path d="M264.994 38.6612C263.358 36.7763 261.731 34.9085 260.104 33.0492C250.317 21.8764 235.367 15.1984 220.11 15.1813C194.921 15.1472 167.721 15.1301 134.524 15.1301C113.68 15.1301 93.3544 15.1387 74.1196 15.1387H67.0237C51.4007 15.1472 38.5463 20.3327 28.8266 30.5588C15.1374 44.964 15.1288 61.7658 15.1288 67.2839C15.1288 70.0472 15.1203 72.8021 15.1203 75.6336C15.1033 84.2989 15.0863 93.2542 15.214 102.278C15.3844 113.894 19.107 125.468 25.6918 134.866C30.6326 141.92 35.7863 149.135 41.6896 157.289C41.9963 157.707 42.1666 158.227 42.1666 158.739C42.1496 173.118 42.1411 187.498 42.1326 201.877V202.568C42.124 217.724 42.124 232.88 42.0985 248.027C42.0729 265.144 49.3733 280.351 62.6537 290.833C65.1581 292.812 67.7903 295.021 70.5844 297.358L94.1637 317.051L94.794 317.571C127.59 344.957 161.503 373.281 194.912 401.085C204.385 408.966 216.907 413.631 229.276 413.878C232.751 413.947 236.159 413.955 238.425 413.955C239.754 413.955 241.04 413.955 242.284 413.947H242.394C243.698 413.947 244.976 413.938 246.253 413.938C249.524 413.938 251.969 413.964 254.201 414.023C254.721 414.032 255.206 414.04 255.7 414.04C269.85 414.04 282.423 409.034 292.074 399.567C302.092 389.733 307.348 376.684 307.271 361.836C307.22 351.029 307.203 340.002 307.195 329.179H311.003L324.036 329.162C329.658 329.162 346.772 329.145 361.27 314.79C375.99 300.215 375.99 282.867 375.999 277.17V254.73C375.999 233.153 375.999 210.833 376.059 188.888C376.101 174.577 371.152 161.314 361.764 150.525C355.086 142.883 265.897 39.7017 264.994 38.6612ZM369.695 254.756V277.187C369.695 282.236 369.687 297.605 356.841 310.33C344.182 322.859 329.011 322.876 324.027 322.876L310.994 322.893H300.9C300.908 335.72 300.908 348.957 300.976 361.887C301.044 374.995 296.444 386.475 287.67 395.089C279.22 403.379 268.171 407.755 255.7 407.755C255.257 407.755 254.814 407.746 254.363 407.738C252.08 407.678 249.584 407.652 246.253 407.652C244.958 407.652 243.672 407.652 242.377 407.661C241.108 407.661 239.788 407.669 238.425 407.669C236.193 407.669 232.828 407.661 229.404 407.593C218.432 407.371 207.324 403.234 198.933 396.249C165.498 368.42 131.551 340.07 98.7211 312.65L98.2014 312.215L74.6392 292.53C71.8111 290.159 69.1363 287.916 66.5637 285.886C54.8251 276.624 48.3766 263.183 48.4022 248.035C48.4277 232.88 48.4363 217.724 48.4363 202.568V201.877C48.4448 186.73 48.4448 171.591 48.4703 156.444C48.4703 156.086 48.3511 155.728 48.1466 155.438C41.6811 146.534 36.1526 138.79 30.854 131.242C24.9848 122.866 21.6711 112.546 21.5177 102.184C21.39 93.203 21.407 84.2733 21.424 75.6422C21.4326 72.8106 21.4326 70.0472 21.4326 67.2839C21.4326 62.3884 21.4411 47.48 33.3926 34.8999C41.877 25.9703 53.1981 21.4415 67.0322 21.4415H74.1281C93.3714 21.4329 113.697 21.4329 134.55 21.4329C167.73 21.4329 194.921 21.45 220.118 21.4841C233.595 21.5012 246.781 27.3775 255.394 37.2113C257.021 39.062 258.639 40.9213 260.258 42.7891C261.161 43.8296 350.35 147.02 357.028 154.696C365.402 164.316 369.806 176.146 369.772 188.905C369.695 210.858 369.695 233.178 369.695 254.756Z" fill="#003870"/>
<path d="M251.194 50.6186C249.601 48.7764 247.991 46.9341 246.381 45.1004C240.001 37.8168 230.17 33.4671 220.076 33.4501C194.972 33.416 167.849 33.3989 134.72 33.3989C114.889 33.3989 95.5693 33.4074 77.2033 33.4074H67.0152C63.1222 33.4074 51.29 33.416 42.0389 43.1473C33.3756 52.2561 33.3756 63.173 33.3756 67.2754C33.3756 70.0473 33.367 72.8191 33.367 75.6592C33.35 84.2648 33.333 93.1519 33.4607 102.005C33.58 109.988 36.1185 117.928 40.6248 124.359C45.7615 131.694 57.6363 148.137 60.0044 151.421C60.277 151.805 60.4219 152.248 60.4219 152.717C60.4133 157.672 60.3878 187.122 60.3793 201.877V202.679C60.3707 217.801 60.3707 232.922 60.3452 248.044C60.3281 259.438 65.1581 269.537 73.9493 276.479C76.6667 278.62 79.3841 280.905 82.2719 283.328L106.584 303.635C137.617 329.554 172.79 358.919 206.574 387.038C212.92 392.318 221.328 395.448 229.651 395.618C232.947 395.686 236.227 395.695 238.399 395.695C239.737 395.695 241.031 395.695 242.284 395.686C243.604 395.686 244.933 395.678 246.27 395.678C248.579 395.678 251.62 395.686 254.661 395.763C255.01 395.772 255.36 395.772 255.7 395.772C264.969 395.772 273.129 392.573 279.297 386.526C285.711 380.232 289.067 371.729 289.016 361.938C288.948 348.684 288.948 335.285 288.94 322.321V310.953L293.31 310.927C295.644 310.91 297.969 310.91 300.286 310.91H310.977L324.002 310.893C328.176 310.893 339.259 310.884 348.416 301.81C357.718 292.598 357.718 281.792 357.727 277.178V254.125C357.727 232.735 357.727 210.611 357.786 188.845C357.812 179.029 354.421 169.937 347.981 162.534C341.294 154.858 252.08 51.6421 251.194 50.6186ZM347.666 254.142V277.187C347.666 281.11 347.666 288.411 341.346 294.662C335.119 300.829 327.614 300.829 324.002 300.837L310.969 300.854H300.303C297.961 300.854 295.618 300.863 293.267 300.871L278.871 300.957V322.236C278.888 335.243 278.888 348.701 278.956 362.015C278.99 369.119 276.741 374.953 272.26 379.354C267.959 383.575 262.387 385.716 255.709 385.716C255.445 385.716 255.181 385.716 254.925 385.708C252.037 385.631 249.15 385.614 246.279 385.614C244.933 385.614 243.596 385.614 242.267 385.622C241.031 385.622 239.737 385.631 238.408 385.631C235.656 385.631 232.743 385.614 229.864 385.554C223.875 385.435 217.58 383.089 213.023 379.303C179.673 351.541 145.803 323.26 113.049 295.908L88.7885 275.643C85.8326 273.17 83.047 270.824 80.2104 268.581C73.8044 263.524 70.4226 256.436 70.4396 248.087C70.4652 232.922 70.4737 217.758 70.4737 202.602V201.903C70.4822 185.766 70.4822 169.621 70.5163 153.485V149.749C70.5248 149.101 70.3204 148.47 69.937 147.95L67.7393 144.93C60.5752 135.097 54.5867 126.73 48.8963 118.602C45.54 113.809 43.6404 107.881 43.5552 101.894C43.4274 93.1177 43.4444 84.2733 43.4615 75.7104C43.47 72.8703 43.47 70.0899 43.47 67.318C43.47 63.753 43.47 56.3244 49.3563 50.1325C55.6344 43.5226 63.6333 43.5226 67.0407 43.5226H74.1367C93.4141 43.5141 113.799 43.5141 134.746 43.5141C162.619 43.5141 191.488 43.5226 220.084 43.5653C227.214 43.5738 234.396 46.7209 238.834 51.7785C240.435 53.6037 242.028 55.4289 243.596 57.2455C244.499 58.286 333.713 161.51 340.417 169.212C345.23 174.739 347.76 181.545 347.743 188.871C347.666 210.602 347.666 232.735 347.666 254.142Z" fill="#003870"/>
<path d="M297.833 149.596C293.293 144.308 288.752 139.02 283.624 133.05C283.513 134.909 283.411 135.89 283.411 136.879C283.403 171.907 283.411 206.926 283.403 241.954C283.403 246.159 283.317 246.21 279.237 246.21C250.334 246.202 221.43 246.261 192.518 246.125C189.844 246.116 188.89 246.875 188.625 248.743V333.545C200.901 343.788 213.176 354.032 225.468 364.258C226.712 365.29 228.628 365.972 230.247 366.006C238.621 366.177 247.003 365.946 255.377 366.16C258.563 366.236 259.44 365.29 259.423 362.091C259.295 336.505 259.397 310.918 259.287 285.332C259.27 282.193 260.121 281.204 263.35 281.23C283.564 281.374 303.779 281.306 323.985 281.289C328.133 281.289 328.15 281.255 328.15 277.178C328.159 247.711 328.133 218.244 328.21 188.777C328.218 186.073 327.452 184.026 325.688 181.997C316.344 171.259 307.11 160.41 297.833 149.596Z" fill="#003870"/>
<path d="M373.145 140.615C366.492 132.973 277.32 29.8083 276.417 28.7592C274.747 26.8317 273.103 24.9468 271.459 23.0705C258.852 8.68234 239.66 0.0767594 220.127 0.051173C194.92 0.0170577 167.704 0 134.49 0C113.654 0 93.3286 0.00852883 74.1023 0.00852883H67.0064C42.192 0.0170577 26.5946 10.951 17.8716 20.1195C6.02232 32.5801 0.0167638 48.4437 0.0167638 67.2669C0.0167638 70.0217 0.00824524 72.7765 0.00824524 75.591C-0.00879179 84.316 -0.0258288 93.3395 0.110467 102.482C0.32343 117.101 5.01714 131.677 13.3227 143.532C17.5309 149.536 21.8838 155.651 26.7223 162.355C26.9353 162.653 27.0546 163.011 27.0546 163.37C27.0375 176.197 27.0375 189.024 27.029 201.852V202.534C27.0205 217.69 27.0205 232.828 26.9949 247.976C26.9609 269.519 36.5442 289.46 53.3001 302.688C55.6342 304.53 58.1812 306.671 60.8816 308.931L84.4779 328.641L84.9123 329.008C117.777 356.454 151.757 384.838 185.243 412.701C197.476 422.876 212.997 428.659 228.96 428.991C232.572 429.068 236.09 429.077 238.416 429.077C239.796 429.077 241.133 429.077 242.42 429.068C243.689 429.068 244.967 429.06 246.245 429.06C249.379 429.06 251.713 429.085 253.809 429.136C254.465 429.154 255.078 429.162 255.692 429.162C273.615 429.162 290.285 422.484 302.637 410.373C315.457 397.793 322.46 380.531 322.366 361.767C322.34 355.993 322.315 350.142 322.306 344.3H324.044C343.245 344.292 359.336 337.98 371.884 325.562C384.619 312.948 391.085 296.675 391.093 277.195V254.756C391.093 233.187 391.093 210.875 391.153 188.948C391.204 170.926 384.977 154.21 373.145 140.615ZM388.572 254.765V277.204C388.563 295.993 382.353 311.66 370.112 323.78C358.059 335.72 342.555 341.776 324.044 341.793H319.793C319.802 348.488 319.819 355.183 319.853 361.801C319.947 379.882 313.209 396.497 300.882 408.599C289.008 420.249 272.959 426.672 255.7 426.672C255.112 426.672 254.516 426.663 253.886 426.646C251.765 426.595 249.413 426.569 246.262 426.569C244.984 426.569 243.706 426.569 242.437 426.578C241.15 426.578 239.813 426.586 238.442 426.586C236.125 426.586 232.623 426.578 229.037 426.501C213.866 426.194 198.507 420.463 186.879 410.799C153.401 382.936 119.412 354.552 86.5479 327.106L86.1134 326.739L62.5172 307.029C59.7997 304.752 57.2357 302.603 54.876 300.735C38.7334 287.993 29.4909 268.769 29.5249 248.01C29.5505 232.863 29.559 217.715 29.559 202.56V201.877C29.559 188.717 29.5675 175.549 29.5846 162.389C29.5846 162.15 29.5079 161.92 29.3716 161.724C24.3031 154.713 19.7712 148.35 15.4012 142.107C7.37677 130.662 2.84491 116.581 2.64047 102.465C2.50417 93.3395 2.52973 84.3245 2.53825 75.608C2.54677 72.785 2.54677 70.0387 2.54677 67.2839C2.55529 49.126 8.32232 33.8509 19.7116 21.8764C31.9016 9.05761 47.8142 2.55012 67.0234 2.54159H74.1194C93.3457 2.53306 113.671 2.53306 134.507 2.53306C167.721 2.53306 194.929 2.55012 220.135 2.58423C238.953 2.60982 257.438 10.8913 269.577 24.7421C271.221 26.6185 272.865 28.5033 274.526 30.4223C275.429 31.4628 364.601 134.628 371.254 142.278C382.677 155.404 388.691 171.549 388.64 188.956C388.572 210.884 388.572 233.187 388.572 254.765Z" fill="#003870"/>
<path d="M232.658 142.807C219.062 142.901 205.467 142.952 191.871 142.841C189.137 142.815 188.532 143.822 188.574 146.304C188.694 153.843 188.617 161.382 188.626 168.922C188.634 176.564 188.694 184.214 188.591 191.856C188.557 194.287 189.418 195.157 191.88 195.14C205.475 195.063 219.071 195.071 232.666 195.148C234.975 195.165 235.81 194.321 235.801 192.027C235.741 176.632 235.733 161.237 235.801 145.843C235.81 143.498 234.932 142.79 232.658 142.807Z" fill="#003870"/>
<path d="M136.279 282.833V271.123C136.228 229.707 136.228 188.282 136.322 146.866C136.33 143.66 135.436 142.67 132.267 142.807C126.517 143.037 120.75 142.883 114.991 142.883C110.417 142.883 110.366 142.875 110.357 138.158C110.332 125.885 110.34 113.621 110.357 101.348C110.366 96.6998 110.4 96.6998 115.136 96.6998C159.126 96.6998 203.107 96.6913 247.097 96.6913H251.169C250.479 95.5314 250.283 95.0452 249.95 94.6614C241.381 84.623 232.845 74.559 224.148 64.6314C223.279 63.6421 221.43 63.0707 220.042 63.0707C169.041 63.0024 118.033 63.0195 67.0322 63.0366C62.9604 63.0366 62.9604 63.0621 62.9518 67.301C62.9518 78.7296 62.8667 90.1582 63.0285 101.587C63.0541 103.531 63.7185 105.775 64.8344 107.361C72.3478 118.082 80.0144 128.691 87.7493 139.259C89.3167 141.399 90.0152 143.515 90.0152 146.184C89.9385 180.163 89.9811 214.133 89.93 248.112C89.93 250.304 90.5348 251.865 92.2726 253.238C96.1315 256.283 99.8796 259.481 103.662 262.637C114.531 271.72 125.41 280.795 136.279 289.878V287.942C136.075 286.995 136.245 285.417 136.279 282.833Z" fill="#003870"/>
</g>
</g>
<defs>
<clipPath id="clip0_2001_16745">
<rect width="391" height="429" fill="white"/>
</clipPath>
</defs>
</svg>
